<?xml version="1.0" encoding="UTF-8" standalone="no"?>
<!DOCTYPE svg PUBLIC "-//W3C//DTD SVG 1.1//EN"
 "http://www.w3.org/Graphics/SVG/1.1/DTD/svg11.dtd">
<!-- Generated by graphviz version 2.43.0 (0)
 -->
<!-- Title: %3 Pages: 1 -->
<svg width="265pt" height="522pt"
 viewBox="0.00 0.00 265.20 522.20" xmlns="http://www.w3.org/2000/svg" xmlns:xlink="http://www.w3.org/1999/xlink">
<g id="graph0" class="graph" transform="scale(1 1) rotate(0) translate(21.6 500.6)">
<title>%3</title>
<polygon fill="white" stroke="transparent" points="-21.6,21.6 -21.6,-500.6 243.6,-500.6 243.6,21.6 -21.6,21.6"/>
<text text-anchor="middle" x="111" y="-463.8" font-family="Times,serif" font-size="14.00">Answer Decision Flow</text>
<!-- q -->
<g id="node1" class="node">
<title>q</title>
<path fill="none" stroke="#222222" stroke-width="1.6" d="M141,-456C141,-456 110,-456 110,-456 104,-456 98,-450 98,-444 98,-444 98,-432 98,-432 98,-426 104,-420 110,-420 110,-420 141,-420 141,-420 147,-420 153,-426 153,-432 153,-432 153,-444 153,-444 153,-450 147,-456 141,-456"/>
<text text-anchor="middle" x="125.5" y="-434.9" font-family="Helvetica,sans-Serif" font-size="12.00">Query</text>
</g>
<!-- ret -->
<g id="node2" class="node">
<title>ret</title>
<path fill="none" stroke="#222222" stroke-width="1.6" d="M147.5,-362C147.5,-362 103.5,-362 103.5,-362 97.5,-362 91.5,-356 91.5,-350 91.5,-350 91.5,-338 91.5,-338 91.5,-332 97.5,-326 103.5,-326 103.5,-326 147.5,-326 147.5,-326 153.5,-326 159.5,-332 159.5,-338 159.5,-338 159.5,-350 159.5,-350 159.5,-356 153.5,-362 147.5,-362"/>
<text text-anchor="middle" x="125.5" y="-340.9" font-family="Helvetica,sans-Serif" font-size="12.00">Retrieve</text>
</g>
<!-- q&#45;&gt;ret -->
<g id="edge1" class="edge">
<title>q&#45;&gt;ret</title>
<path fill="none" stroke="#222222" stroke-width="1.4" d="M125.5,-419.88C125.5,-419.88 125.5,-369.07 125.5,-369.07"/>
<polygon fill="#222222" stroke="#222222" stroke-width="1.4" points="127.95,-369.07 125.5,-362.07 123.05,-369.07 127.95,-369.07"/>
</g>
<!-- gate -->
<g id="node3" class="node">
<title>gate</title>
<polygon fill="none" stroke="#222222" stroke-width="1.8" points="125.5,-268 73.5,-230 125.5,-192 177.5,-230 125.5,-268"/>
<text text-anchor="middle" x="125.5" y="-233.4" font-family="Helvetica,sans-Serif" font-size="12.00">Gate</text>
<text text-anchor="middle" x="125.5" y="-220.4" font-family="Helvetica,sans-Serif" font-size="12.00">pass?</text>
</g>
<!-- ret&#45;&gt;gate -->
<g id="edge2" class="edge">
<title>ret&#45;&gt;gate</title>
<path fill="none" stroke="#222222" stroke-width="1.4" d="M125.5,-325.94C125.5,-325.94 125.5,-275.27 125.5,-275.27"/>
<polygon fill="#222222" stroke="#222222" stroke-width="1.4" points="127.95,-275.27 125.5,-268.27 123.05,-275.27 127.95,-275.27"/>
</g>
<!-- gen -->
<g id="node4" class="node">
<title>gen</title>
<path fill="#f6f6f6" stroke="#222222" stroke-width="2" d="M111,-134C111,-134 12,-134 12,-134 6,-134 0,-128 0,-122 0,-122 0,-108 0,-108 0,-102 6,-96 12,-96 12,-96 111,-96 111,-96 117,-96 123,-102 123,-108 123,-108 123,-122 123,-122 123,-128 117,-134 111,-134"/>
<text text-anchor="middle" x="61.5" y="-118.4" font-family="Helvetica,sans-Serif" font-size="12.00">Generate</text>
<text text-anchor="middle" x="61.5" y="-105.4" font-family="Helvetica,sans-Serif" font-size="12.00">grounded answer</text>
</g>
<!-- gate&#45;&gt;gen -->
<g id="edge3" class="edge">
<title>gate&#45;&gt;gen</title>
<path fill="none" stroke="#222222" stroke-width="1.4" d="M98.25,-211.78C98.25,-211.78 98.25,-141.29 98.25,-141.29"/>
<polygon fill="#222222" stroke="#222222" stroke-width="1.4" points="100.7,-141.29 98.25,-134.29 95.8,-141.29 100.7,-141.29"/>
<text text-anchor="middle" x="89.25" y="-179.53" font-family="Helvetica,sans-Serif" font-size="10.00">yes</text>
</g>
<!-- abstain -->
<g id="node5" class="node">
<title>abstain</title>
<path fill="none" stroke="#222222" stroke-width="1.6" d="M210,-133C210,-133 171,-133 171,-133 165,-133 159,-127 159,-121 159,-121 159,-109 159,-109 159,-103 165,-97 171,-97 171,-97 210,-97 210,-97 216,-97 222,-103 222,-109 222,-109 222,-121 222,-121 222,-127 216,-133 210,-133"/>
<text text-anchor="middle" x="190.5" y="-111.9" font-family="Helvetica,sans-Serif" font-size="12.00">Abstain</text>
</g>
<!-- gate&#45;&gt;abstain -->
<g id="edge4" class="edge">
<title>gate&#45;&gt;abstain</title>
<path fill="none" stroke="#222222" stroke-width="1.4" d="M168.25,-223.15C168.25,-223.15 168.25,-140.33 168.25,-140.33"/>
<polygon fill="#222222" stroke="#222222" stroke-width="1.4" points="170.7,-140.33 168.25,-133.33 165.8,-140.33 170.7,-140.33"/>
<text text-anchor="middle" x="161.75" y="-184.74" font-family="Helvetica,sans-Serif" font-size="10.00">no</text>
</g>
<!-- out -->
<g id="node6" class="node">
<title>out</title>
<path fill="#f6f6f6" stroke="#222222" stroke-width="2" d="M158,-38C158,-38 93,-38 93,-38 87,-38 81,-32 81,-26 81,-26 81,-12 81,-12 81,-6 87,0 93,0 93,0 158,0 158,0 164,0 170,-6 170,-12 170,-12 170,-26 170,-26 170,-32 164,-38 158,-38"/>
<text text-anchor="middle" x="125.5" y="-22.4" font-family="Helvetica,sans-Serif" font-size="12.00">Output with</text>
<text text-anchor="middle" x="125.5" y="-9.4" font-family="Helvetica,sans-Serif" font-size="12.00">Safety Note</text>
</g>
<!-- gen&#45;&gt;out -->
<g id="edge5" class="edge">
<title>gen&#45;&gt;out</title>
<path fill="none" stroke="#222222" stroke-width="1.4" d="M102,-95.57C102,-95.57 102,-45.07 102,-45.07"/>
<polygon fill="#222222" stroke="#222222" stroke-width="1.4" points="104.45,-45.07 102,-38.07 99.55,-45.07 104.45,-45.07"/>
</g>
<!-- abstain&#45;&gt;out -->
<g id="edge6" class="edge">
<title>abstain&#45;&gt;out</title>
<path fill="none" stroke="#222222" stroke-width="1.4" d="M164.5,-96.94C164.5,-96.94 164.5,-45.29 164.5,-45.29"/>
<polygon fill="#222222" stroke="#222222" stroke-width="1.4" points="166.95,-45.29 164.5,-38.29 162.05,-45.29 166.95,-45.29"/>
</g>
</g>
</svg>
