<?xml version="1.0" encoding="UTF-8" standalone="no"?>
<!DOCTYPE svg PUBLIC "-//W3C//DTD SVG 1.1//EN"
 "http://www.w3.org/Graphics/SVG/1.1/DTD/svg11.dtd">
<!-- Generated by graphviz version 2.43.0 (0)
 -->
<!-- Title: %3 Pages: 1 -->
<svg width="734pt" height="104pt"
 viewBox="0.00 0.00 734.20 104.20" xmlns="http://www.w3.org/2000/svg" xmlns:xlink="http://www.w3.org/1999/xlink">
<g id="graph0" class="graph" transform="scale(1 1) rotate(0) translate(21.6 82.6)">
<title>%3</title>
<polygon fill="white" stroke="transparent" points="-21.6,21.6 -21.6,-82.6 712.6,-82.6 712.6,21.6 -21.6,21.6"/>
<text text-anchor="middle" x="345.5" y="-45.8" font-family="Times,serif" font-size="14.00">Experiment Progression</text>
<!-- s1 -->
<g id="node1" class="node">
<title>s1</title>
<path fill="none" stroke="#222222" stroke-width="1.6" d="M74,-37C74,-37 12,-37 12,-37 6,-37 0,-31 0,-25 0,-25 0,-13 0,-13 0,-7 6,-1 12,-1 12,-1 74,-1 74,-1 80,-1 86,-7 86,-13 86,-13 86,-25 86,-25 86,-31 80,-37 74,-37"/>
<text text-anchor="middle" x="43" y="-15.9" font-family="Helvetica,sans-Serif" font-size="12.00">Vector&#45;only</text>
</g>
<!-- s2 -->
<g id="node2" class="node">
<title>s2</title>
<path fill="none" stroke="#222222" stroke-width="1.6" d="M214,-37C214,-37 156,-37 156,-37 150,-37 144,-31 144,-25 144,-25 144,-13 144,-13 144,-7 150,-1 156,-1 156,-1 214,-1 214,-1 220,-1 226,-7 226,-13 226,-13 226,-25 226,-25 226,-31 220,-37 214,-37"/>
<text text-anchor="middle" x="185" y="-15.9" font-family="Helvetica,sans-Serif" font-size="12.00">BM25&#45;only</text>
</g>
<!-- s1&#45;&gt;s2 -->
<g id="edge1" class="edge">
<title>s1&#45;&gt;s2</title>
<path fill="none" stroke="#222222" stroke-width="1.4" d="M86,-19C101.93,-19 120.17,-19 136.56,-19"/>
<polygon fill="#222222" stroke="#222222" stroke-width="1.4" points="136.95,-21.45 143.95,-19 136.95,-16.55 136.95,-21.45"/>
</g>
<!-- s3 -->
<g id="node3" class="node">
<title>s3</title>
<path fill="none" stroke="#222222" stroke-width="1.6" d="M357,-37C357,-37 296,-37 296,-37 290,-37 284,-31 284,-25 284,-25 284,-13 284,-13 284,-7 290,-1 296,-1 296,-1 357,-1 357,-1 363,-1 369,-7 369,-13 369,-13 369,-25 369,-25 369,-31 363,-37 357,-37"/>
<text text-anchor="middle" x="326.5" y="-15.9" font-family="Helvetica,sans-Serif" font-size="12.00">Hybrid RRF</text>
</g>
<!-- s2&#45;&gt;s3 -->
<g id="edge2" class="edge">
<title>s2&#45;&gt;s3</title>
<path fill="none" stroke="#222222" stroke-width="1.4" d="M226.35,-19C241.98,-19 260.02,-19 276.4,-19"/>
<polygon fill="#222222" stroke="#222222" stroke-width="1.4" points="276.79,-21.45 283.79,-19 276.79,-16.55 276.79,-21.45"/>
</g>
<!-- s4 -->
<g id="node4" class="node">
<title>s4</title>
<path fill="none" stroke="#222222" stroke-width="1.6" d="M518,-37C518,-37 439,-37 439,-37 433,-37 427,-31 427,-25 427,-25 427,-13 427,-13 427,-7 433,-1 439,-1 439,-1 518,-1 518,-1 524,-1 530,-7 530,-13 530,-13 530,-25 530,-25 530,-31 524,-37 518,-37"/>
<text text-anchor="middle" x="478.5" y="-15.9" font-family="Helvetica,sans-Serif" font-size="12.00">Hybrid + Gate</text>
</g>
<!-- s3&#45;&gt;s4 -->
<g id="edge3" class="edge">
<title>s3&#45;&gt;s4</title>
<path fill="none" stroke="#222222" stroke-width="1.4" d="M369.28,-19C384.91,-19 402.94,-19 419.76,-19"/>
<polygon fill="#222222" stroke="#222222" stroke-width="1.4" points="419.88,-21.45 426.88,-19 419.88,-16.55 419.88,-21.45"/>
</g>
<!-- s5 -->
<g id="node5" class="node">
<title>s5</title>
<path fill="#f6f6f6" stroke="#222222" stroke-width="2" d="M679,-38C679,-38 600,-38 600,-38 594,-38 588,-32 588,-26 588,-26 588,-12 588,-12 588,-6 594,0 600,0 600,0 679,0 679,0 685,0 691,-6 691,-12 691,-12 691,-26 691,-26 691,-32 685,-38 679,-38"/>
<text text-anchor="middle" x="639.5" y="-22.4" font-family="Helvetica,sans-Serif" font-size="12.00">Hybrid + Gate</text>
<text text-anchor="middle" x="639.5" y="-9.4" font-family="Helvetica,sans-Serif" font-size="12.00">+ Answer</text>
</g>
<!-- s4&#45;&gt;s5 -->
<g id="edge4" class="edge">
<title>s4&#45;&gt;s5</title>
<path fill="none" stroke="#222222" stroke-width="1.4" d="M530.25,-19C546.39,-19 564.36,-19 580.95,-19"/>
<polygon fill="#222222" stroke="#222222" stroke-width="1.4" points="580.96,-21.45 587.96,-19 580.96,-16.55 580.96,-21.45"/>
</g>
</g>
</svg>
