<?xml version="1.0" encoding="UTF-8" standalone="no"?>
<!DOCTYPE svg PUBLIC "-//W3C//DTD SVG 1.1//EN"
 "http://www.w3.org/Graphics/SVG/1.1/DTD/svg11.dtd">
<!-- Generated by graphviz version 2.43.0 (0)
 -->
<!-- Title: %3 Pages: 1 -->
<svg width="647pt" height="278pt"
 viewBox="0.00 0.00 647.20 278.45" xmlns="http://www.w3.org/2000/svg" xmlns:xlink="http://www.w3.org/1999/xlink">
<g id="graph0" class="graph" transform="scale(1 1) rotate(0) translate(21.6 256.85)">
<title>%3</title>
<polygon fill="white" stroke="transparent" points="-21.6,21.6 -21.6,-256.85 625.6,-256.85 625.6,21.6 -21.6,21.6"/>
<text text-anchor="middle" x="302" y="-220.05" font-family="Times,serif" font-size="14.00">Offline Indexing Pipeline</text>
<!-- raw -->
<g id="node1" class="node">
<title>raw</title>
<path fill="none" stroke="#222222" stroke-width="1.6" d="M75,-125.12C75,-125.12 12,-125.12 12,-125.12 6,-125.12 0,-119.12 0,-113.12 0,-113.12 0,-99.12 0,-99.12 0,-93.12 6,-87.12 12,-87.12 12,-87.12 75,-87.12 75,-87.12 81,-87.12 87,-93.12 87,-99.12 87,-99.12 87,-113.12 87,-113.12 87,-119.12 81,-125.12 75,-125.12"/>
<text text-anchor="middle" x="43.5" y="-109.53" font-family="Helvetica,sans-Serif" font-size="12.00">Raw</text>
<text text-anchor="middle" x="43.5" y="-96.53" font-family="Helvetica,sans-Serif" font-size="12.00">Documents</text>
</g>
<!-- clean -->
<g id="node2" class="node">
<title>clean</title>
<path fill="none" stroke="#222222" stroke-width="1.6" d="M206,-125.12C206,-125.12 157,-125.12 157,-125.12 151,-125.12 145,-119.12 145,-113.12 145,-113.12 145,-99.12 145,-99.12 145,-93.12 151,-87.12 157,-87.12 157,-87.12 206,-87.12 206,-87.12 212,-87.12 218,-93.12 218,-99.12 218,-99.12 218,-113.12 218,-113.12 218,-119.12 212,-125.12 206,-125.12"/>
<text text-anchor="middle" x="181.5" y="-109.53" font-family="Helvetica,sans-Serif" font-size="12.00">Clean</text>
<text text-anchor="middle" x="181.5" y="-96.53" font-family="Helvetica,sans-Serif" font-size="12.00">Passages</text>
</g>
<!-- raw&#45;&gt;clean -->
<g id="edge1" class="edge">
<title>raw&#45;&gt;clean</title>
<path fill="none" stroke="#222222" stroke-width="1.4" d="M87.16,-106.12C87.16,-106.12 137.61,-106.12 137.61,-106.12"/>
<polygon fill="#222222" stroke="#222222" stroke-width="1.4" points="137.61,-108.58 144.61,-106.12 137.61,-103.68 137.61,-108.58"/>
</g>
<!-- chunks -->
<g id="node3" class="node">
<title>chunks</title>
<path fill="none" stroke="#222222" stroke-width="1.6" d="M326,-124.12C326,-124.12 288,-124.12 288,-124.12 282,-124.12 276,-118.12 276,-112.12 276,-112.12 276,-100.12 276,-100.12 276,-94.12 282,-88.12 288,-88.12 288,-88.12 326,-88.12 326,-88.12 332,-88.12 338,-94.12 338,-100.12 338,-100.12 338,-112.12 338,-112.12 338,-118.12 332,-124.12 326,-124.12"/>
<text text-anchor="middle" x="307" y="-103.03" font-family="Helvetica,sans-Serif" font-size="12.00">Chunks</text>
</g>
<!-- clean&#45;&gt;chunks -->
<g id="edge2" class="edge">
<title>clean&#45;&gt;chunks</title>
<path fill="none" stroke="#222222" stroke-width="1.4" d="M218.14,-106.12C218.14,-106.12 268.63,-106.12 268.63,-106.12"/>
<polygon fill="#222222" stroke="#222222" stroke-width="1.4" points="268.63,-108.58 275.63,-106.12 268.63,-103.68 268.63,-108.58"/>
</g>
<!-- bm25 -->
<g id="node4" class="node">
<title>bm25</title>
<path fill="none" stroke="#222222" stroke-width="1.8" d="M469,-207.6C469,-210.24 456.9,-212.38 442,-212.38 427.1,-212.38 415,-210.24 415,-207.6 415,-207.6 415,-164.65 415,-164.65 415,-162.01 427.1,-159.87 442,-159.87 456.9,-159.87 469,-162.01 469,-164.65 469,-164.65 469,-207.6 469,-207.6"/>
<path fill="none" stroke="#222222" stroke-width="1.8" d="M469,-207.6C469,-204.97 456.9,-202.83 442,-202.83 427.1,-202.83 415,-204.97 415,-207.6"/>
<text text-anchor="middle" x="442" y="-189.53" font-family="Helvetica,sans-Serif" font-size="12.00">BM25</text>
<text text-anchor="middle" x="442" y="-176.53" font-family="Helvetica,sans-Serif" font-size="12.00">Index</text>
</g>
<!-- chunks&#45;&gt;bm25 -->
<g id="edge3" class="edge">
<title>chunks&#45;&gt;bm25</title>
<path fill="none" stroke="#222222" stroke-width="1.4" d="M307,-124.28C307,-147.88 307,-186.12 307,-186.12 307,-186.12 407.68,-186.12 407.68,-186.12"/>
<polygon fill="#222222" stroke="#222222" stroke-width="1.4" points="407.68,-188.58 414.68,-186.12 407.68,-183.68 407.68,-188.58"/>
</g>
<!-- emb -->
<g id="node5" class="node">
<title>emb</title>
<path fill="none" stroke="#222222" stroke-width="1.6" d="M476,-124.12C476,-124.12 408,-124.12 408,-124.12 402,-124.12 396,-118.12 396,-112.12 396,-112.12 396,-100.12 396,-100.12 396,-94.12 402,-88.12 408,-88.12 408,-88.12 476,-88.12 476,-88.12 482,-88.12 488,-94.12 488,-100.12 488,-100.12 488,-112.12 488,-112.12 488,-118.12 482,-124.12 476,-124.12"/>
<text text-anchor="middle" x="442" y="-103.03" font-family="Helvetica,sans-Serif" font-size="12.00">Embeddings</text>
</g>
<!-- chunks&#45;&gt;emb -->
<g id="edge4" class="edge">
<title>chunks&#45;&gt;emb</title>
<path fill="none" stroke="#222222" stroke-width="1.4" d="M338.31,-106.12C338.31,-106.12 388.75,-106.12 388.75,-106.12"/>
<polygon fill="#222222" stroke="#222222" stroke-width="1.4" points="388.75,-108.58 395.75,-106.12 388.75,-103.68 388.75,-108.58"/>
</g>
<!-- parents -->
<g id="node7" class="node">
<title>parents</title>
<path fill="none" stroke="#222222" stroke-width="1.8" d="M473.5,-47.6C473.5,-50.24 459.38,-52.38 442,-52.38 424.62,-52.38 410.5,-50.24 410.5,-47.6 410.5,-47.6 410.5,-4.65 410.5,-4.65 410.5,-2.01 424.62,0.13 442,0.13 459.38,0.13 473.5,-2.01 473.5,-4.65 473.5,-4.65 473.5,-47.6 473.5,-47.6"/>
<path fill="none" stroke="#222222" stroke-width="1.8" d="M473.5,-47.6C473.5,-44.97 459.38,-42.83 442,-42.83 424.62,-42.83 410.5,-44.97 410.5,-47.6"/>
<text text-anchor="middle" x="442" y="-29.52" font-family="Helvetica,sans-Serif" font-size="12.00">Parents</text>
<text text-anchor="middle" x="442" y="-16.52" font-family="Helvetica,sans-Serif" font-size="12.00">JSONL</text>
</g>
<!-- chunks&#45;&gt;parents -->
<g id="edge6" class="edge">
<title>chunks&#45;&gt;parents</title>
<path fill="none" stroke="#222222" stroke-width="1.4" d="M307,-87.97C307,-64.37 307,-26.12 307,-26.12 307,-26.12 403.35,-26.12 403.35,-26.12"/>
<polygon fill="#222222" stroke="#222222" stroke-width="1.4" points="403.35,-28.58 410.35,-26.12 403.35,-23.68 403.35,-28.58"/>
</g>
<!-- vdb -->
<g id="node6" class="node">
<title>vdb</title>
<path fill="none" stroke="#222222" stroke-width="1.8" d="M604,-127.6C604,-130.24 591,-132.38 575,-132.38 559,-132.38 546,-130.24 546,-127.6 546,-127.6 546,-84.65 546,-84.65 546,-82.01 559,-79.87 575,-79.87 591,-79.87 604,-82.01 604,-84.65 604,-84.65 604,-127.6 604,-127.6"/>
<path fill="none" stroke="#222222" stroke-width="1.8" d="M604,-127.6C604,-124.97 591,-122.83 575,-122.83 559,-122.83 546,-124.97 546,-127.6"/>
<text text-anchor="middle" x="575" y="-109.53" font-family="Helvetica,sans-Serif" font-size="12.00">Vector</text>
<text text-anchor="middle" x="575" y="-96.53" font-family="Helvetica,sans-Serif" font-size="12.00">DB</text>
</g>
<!-- emb&#45;&gt;vdb -->
<g id="edge5" class="edge">
<title>emb&#45;&gt;vdb</title>
<path fill="none" stroke="#222222" stroke-width="1.4" d="M488.14,-106.12C488.14,-106.12 538.98,-106.12 538.98,-106.12"/>
<polygon fill="#222222" stroke="#222222" stroke-width="1.4" points="538.98,-108.58 545.98,-106.12 538.98,-103.68 538.98,-108.58"/>
</g>
</g>
</svg>
