<?xml version="1.0" encoding="UTF-8" standalone="no"?>
<!DOCTYPE svg PUBLIC "-//W3C//DTD SVG 1.1//EN"
 "http://www.w3.org/Graphics/SVG/1.1/DTD/svg11.dtd">
<!-- Generated by graphviz version 2.43.0 (0)
 -->
<!-- Title: %3 Pages: 1 -->
<svg width="267pt" height="622pt"
 viewBox="0.00 0.00 267.20 622.20" xmlns="http://www.w3.org/2000/svg" xmlns:xlink="http://www.w3.org/1999/xlink">
<g id="graph0" class="graph" transform="scale(1 1) rotate(0) translate(21.6 600.6)">
<title>%3</title>
<polygon fill="white" stroke="transparent" points="-21.6,21.6 -21.6,-600.6 245.6,-600.6 245.6,21.6 -21.6,21.6"/>
<text text-anchor="middle" x="112" y="-563.8" font-family="Times,serif" font-size="14.00">Online Query&#45;Time Pipeline</text>
<!-- q -->
<g id="node1" class="node">
<title>q</title>
<path fill="none" stroke="#222222" stroke-width="1.6" d="M141.5,-556C141.5,-556 110.5,-556 110.5,-556 104.5,-556 98.5,-550 98.5,-544 98.5,-544 98.5,-530 98.5,-530 98.5,-524 104.5,-518 110.5,-518 110.5,-518 141.5,-518 141.5,-518 147.5,-518 153.5,-524 153.5,-530 153.5,-530 153.5,-544 153.5,-544 153.5,-550 147.5,-556 141.5,-556"/>
<text text-anchor="middle" x="126" y="-540.4" font-family="Helvetica,sans-Serif" font-size="12.00">User</text>
<text text-anchor="middle" x="126" y="-527.4" font-family="Helvetica,sans-Serif" font-size="12.00">Query</text>
</g>
<!-- hy -->
<g id="node2" class="node">
<title>hy</title>
<path fill="none" stroke="#222222" stroke-width="1.6" d="M149.5,-460C149.5,-460 102.5,-460 102.5,-460 96.5,-460 90.5,-454 90.5,-448 90.5,-448 90.5,-434 90.5,-434 90.5,-428 96.5,-422 102.5,-422 102.5,-422 149.5,-422 149.5,-422 155.5,-422 161.5,-428 161.5,-434 161.5,-434 161.5,-448 161.5,-448 161.5,-454 155.5,-460 149.5,-460"/>
<text text-anchor="middle" x="126" y="-444.4" font-family="Helvetica,sans-Serif" font-size="12.00">Hybrid</text>
<text text-anchor="middle" x="126" y="-431.4" font-family="Helvetica,sans-Serif" font-size="12.00">Retrieval</text>
</g>
<!-- q&#45;&gt;hy -->
<g id="edge1" class="edge">
<title>q&#45;&gt;hy</title>
<path fill="none" stroke="#222222" stroke-width="1.4" d="M126,-517.57C126,-517.57 126,-467.07 126,-467.07"/>
<polygon fill="#222222" stroke="#222222" stroke-width="1.4" points="128.45,-467.07 126,-460.07 123.55,-467.07 128.45,-467.07"/>
</g>
<!-- gate -->
<g id="node3" class="node">
<title>gate</title>
<polygon fill="none" stroke="#222222" stroke-width="1.8" points="126,-364 28,-326 126,-288 224,-326 126,-364"/>
<text text-anchor="middle" x="126" y="-329.4" font-family="Helvetica,sans-Serif" font-size="12.00">Answerability</text>
<text text-anchor="middle" x="126" y="-316.4" font-family="Helvetica,sans-Serif" font-size="12.00">Gate</text>
</g>
<!-- hy&#45;&gt;gate -->
<g id="edge2" class="edge">
<title>hy&#45;&gt;gate</title>
<path fill="none" stroke="#222222" stroke-width="1.4" d="M126,-421.75C126,-421.75 126,-371.42 126,-371.42"/>
<polygon fill="#222222" stroke="#222222" stroke-width="1.4" points="128.45,-371.42 126,-364.42 123.55,-371.42 128.45,-371.42"/>
</g>
<!-- ctx -->
<g id="node4" class="node">
<title>ctx</title>
<path fill="none" stroke="#222222" stroke-width="1.6" d="M97,-230C97,-230 53,-230 53,-230 47,-230 41,-224 41,-218 41,-218 41,-204 41,-204 41,-198 47,-192 53,-192 53,-192 97,-192 97,-192 103,-192 109,-198 109,-204 109,-204 109,-218 109,-218 109,-224 103,-230 97,-230"/>
<text text-anchor="middle" x="75" y="-214.4" font-family="Helvetica,sans-Serif" font-size="12.00">Focused</text>
<text text-anchor="middle" x="75" y="-201.4" font-family="Helvetica,sans-Serif" font-size="12.00">Context</text>
</g>
<!-- gate&#45;&gt;ctx -->
<g id="edge3" class="edge">
<title>gate&#45;&gt;ctx</title>
<path fill="none" stroke="#222222" stroke-width="1.4" d="M75,-307.52C75,-307.52 75,-237.2 75,-237.2"/>
<polygon fill="#222222" stroke="#222222" stroke-width="1.4" points="77.45,-237.2 75,-230.2 72.55,-237.2 77.45,-237.2"/>
<text text-anchor="middle" x="63.5" y="-275.36" font-family="Helvetica,sans-Serif" font-size="10.00">pass</text>
</g>
<!-- abstain -->
<g id="node6" class="node">
<title>abstain</title>
<path fill="none" stroke="#222222" stroke-width="1.6" d="M201.5,-229C201.5,-229 162.5,-229 162.5,-229 156.5,-229 150.5,-223 150.5,-217 150.5,-217 150.5,-205 150.5,-205 150.5,-199 156.5,-193 162.5,-193 162.5,-193 201.5,-193 201.5,-193 207.5,-193 213.5,-199 213.5,-205 213.5,-205 213.5,-217 213.5,-217 213.5,-223 207.5,-229 201.5,-229"/>
<text text-anchor="middle" x="182" y="-207.9" font-family="Helvetica,sans-Serif" font-size="12.00">Abstain</text>
</g>
<!-- gate&#45;&gt;abstain -->
<g id="edge4" class="edge">
<title>gate&#45;&gt;abstain</title>
<path fill="none" stroke="#222222" stroke-width="1.4" d="M182,-309.52C182,-309.52 182,-236.35 182,-236.35"/>
<polygon fill="#222222" stroke="#222222" stroke-width="1.4" points="184.45,-236.35 182,-229.35 179.55,-236.35 184.45,-236.35"/>
<text text-anchor="middle" x="174" y="-275.94" font-family="Helvetica,sans-Serif" font-size="10.00">fail</text>
</g>
<!-- ans -->
<g id="node5" class="node">
<title>ans</title>
<path fill="#f6f6f6" stroke="#222222" stroke-width="2" d="M120,-134C120,-134 12,-134 12,-134 6,-134 0,-128 0,-122 0,-122 0,-108 0,-108 0,-102 6,-96 12,-96 12,-96 120,-96 120,-96 126,-96 132,-102 132,-108 132,-108 132,-122 132,-122 132,-128 126,-134 120,-134"/>
<text text-anchor="middle" x="66" y="-118.4" font-family="Helvetica,sans-Serif" font-size="12.00">Local LLM</text>
<text text-anchor="middle" x="66" y="-105.4" font-family="Helvetica,sans-Serif" font-size="12.00">Answer + Citations</text>
</g>
<!-- ctx&#45;&gt;ans -->
<g id="edge5" class="edge">
<title>ctx&#45;&gt;ans</title>
<path fill="none" stroke="#222222" stroke-width="1.4" d="M75,-191.57C75,-191.57 75,-141.07 75,-141.07"/>
<polygon fill="#222222" stroke="#222222" stroke-width="1.4" points="77.45,-141.07 75,-134.07 72.55,-141.07 77.45,-141.07"/>
</g>
<!-- out -->
<g id="node7" class="node">
<title>out</title>
<path fill="#f6f6f6" stroke="#222222" stroke-width="2" d="M158.5,-38C158.5,-38 93.5,-38 93.5,-38 87.5,-38 81.5,-32 81.5,-26 81.5,-26 81.5,-12 81.5,-12 81.5,-6 87.5,0 93.5,0 93.5,0 158.5,0 158.5,0 164.5,0 170.5,-6 170.5,-12 170.5,-12 170.5,-26 170.5,-26 170.5,-32 164.5,-38 158.5,-38"/>
<text text-anchor="middle" x="126" y="-22.4" font-family="Helvetica,sans-Serif" font-size="12.00">Output with</text>
<text text-anchor="middle" x="126" y="-9.4" font-family="Helvetica,sans-Serif" font-size="12.00">Safety Note</text>
</g>
<!-- ans&#45;&gt;out -->
<g id="edge6" class="edge">
<title>ans&#45;&gt;out</title>
<path fill="none" stroke="#222222" stroke-width="1.4" d="M106.75,-95.57C106.75,-95.57 106.75,-45.07 106.75,-45.07"/>
<polygon fill="#222222" stroke="#222222" stroke-width="1.4" points="109.2,-45.07 106.75,-38.07 104.3,-45.07 109.2,-45.07"/>
</g>
<!-- abstain&#45;&gt;out -->
<g id="edge7" class="edge">
<title>abstain&#45;&gt;out</title>
<path fill="none" stroke="#222222" stroke-width="1.4" d="M160.5,-192.94C160.5,-192.94 160.5,-45 160.5,-45"/>
<polygon fill="#222222" stroke="#222222" stroke-width="1.4" points="162.95,-45 160.5,-38 158.05,-45 162.95,-45"/>
</g>
</g>
</svg>
