<?xml version="1.0" encoding="UTF-8" standalone="no"?>
<!DOCTYPE svg PUBLIC "-//W3C//DTD SVG 1.1//EN"
 "http://www.w3.org/Graphics/SVG/1.1/DTD/svg11.dtd">
<!-- Generated by graphviz version 2.43.0 (0)
 -->
<!-- Title: %3 Pages: 1 -->
<svg width="899pt" height="346pt"
 viewBox="0.00 0.00 898.57 346.20" xmlns="http://www.w3.org/2000/svg" xmlns:xlink="http://www.w3.org/1999/xlink">
<g id="graph0" class="graph" transform="scale(1 1) rotate(0) translate(21.6 324.6)">
<title>%3</title>
<polygon fill="white" stroke="transparent" points="-21.6,21.6 -21.6,-324.6 876.97,-324.6 876.97,21.6 -21.6,21.6"/>
<text text-anchor="middle" x="427.69" y="-287.8" font-family="Times,serif" font-size="14.00">System Overview Architecture</text>
<g id="clust1" class="cluster">
<title>cluster_offline</title>
<path fill="white" stroke="#b9b9b9" d="M20,-93C20,-93 493.37,-93 493.37,-93 499.37,-93 505.37,-99 505.37,-105 505.37,-105 505.37,-260 505.37,-260 505.37,-266 499.37,-272 493.37,-272 493.37,-272 20,-272 20,-272 14,-272 8,-266 8,-260 8,-260 8,-105 8,-105 8,-99 14,-93 20,-93"/>
<text text-anchor="middle" x="256.69" y="-256.8" font-family="Times,serif" font-size="14.00">Offline Indexing</text>
</g>
<g id="clust3" class="cluster">
<title>cluster_online</title>
<path fill="white" stroke="#b9b9b9" d="M33,-8C33,-8 835.37,-8 835.37,-8 841.37,-8 847.37,-14 847.37,-20 847.37,-20 847.37,-73 847.37,-73 847.37,-79 841.37,-85 835.37,-85 835.37,-85 33,-85 33,-85 27,-85 21,-79 21,-73 21,-73 21,-20 21,-20 21,-14 27,-8 33,-8"/>
<text text-anchor="middle" x="434.19" y="-69.8" font-family="Times,serif" font-size="14.00">Online Inference</text>
</g>
<!-- src -->
<g id="node1" class="node">
<title>src</title>
<path fill="none" stroke="#222222" stroke-width="1.6" d="M85,-190C85,-190 28,-190 28,-190 22,-190 16,-184 16,-178 16,-178 16,-164 16,-164 16,-158 22,-152 28,-152 28,-152 85,-152 85,-152 91,-152 97,-158 97,-164 97,-164 97,-178 97,-178 97,-184 91,-190 85,-190"/>
<text text-anchor="middle" x="56.5" y="-174.4" font-family="Helvetica,sans-Serif" font-size="12.00">Document</text>
<text text-anchor="middle" x="56.5" y="-161.4" font-family="Helvetica,sans-Serif" font-size="12.00">Sources</text>
</g>
<!-- ing -->
<g id="node2" class="node">
<title>ing</title>
<path fill="none" stroke="#222222" stroke-width="1.6" d="M210,-190C210,-190 171,-190 171,-190 165,-190 159,-184 159,-178 159,-178 159,-164 159,-164 159,-158 165,-152 171,-152 171,-152 210,-152 210,-152 216,-152 222,-158 222,-164 222,-164 222,-178 222,-178 222,-184 216,-190 210,-190"/>
<text text-anchor="middle" x="190.5" y="-174.4" font-family="Helvetica,sans-Serif" font-size="12.00">Ingest /</text>
<text text-anchor="middle" x="190.5" y="-161.4" font-family="Helvetica,sans-Serif" font-size="12.00">Clean</text>
</g>
<!-- src&#45;&gt;ing -->
<g id="edge1" class="edge">
<title>src&#45;&gt;ing</title>
<path fill="none" stroke="#222222" stroke-width="1.4" d="M97.07,-171C97.07,-171 151.57,-171 151.57,-171"/>
<polygon fill="#222222" stroke="#222222" stroke-width="1.4" points="151.57,-173.45 158.57,-171 151.57,-168.55 151.57,-173.45"/>
</g>
<!-- chunk -->
<g id="node3" class="node">
<title>chunk</title>
<path fill="none" stroke="#222222" stroke-width="1.6" d="M363.69,-190C363.69,-190 296.69,-190 296.69,-190 290.69,-190 284.69,-184 284.69,-178 284.69,-178 284.69,-164 284.69,-164 284.69,-158 290.69,-152 296.69,-152 296.69,-152 363.69,-152 363.69,-152 369.69,-152 375.69,-158 375.69,-164 375.69,-164 375.69,-178 375.69,-178 375.69,-184 369.69,-190 363.69,-190"/>
<text text-anchor="middle" x="330.19" y="-174.4" font-family="Helvetica,sans-Serif" font-size="12.00">Chunking +</text>
<text text-anchor="middle" x="330.19" y="-161.4" font-family="Helvetica,sans-Serif" font-size="12.00">Parent&#45;Child</text>
</g>
<!-- ing&#45;&gt;chunk -->
<g id="edge2" class="edge">
<title>ing&#45;&gt;chunk</title>
<path fill="none" stroke="#222222" stroke-width="1.4" d="M222.2,-171C222.2,-171 277.58,-171 277.58,-171"/>
<polygon fill="#222222" stroke="#222222" stroke-width="1.4" points="277.58,-173.45 284.58,-171 277.58,-168.55 277.58,-173.45"/>
</g>
<!-- bm25 -->
<g id="node4" class="node">
<title>bm25</title>
<path fill="none" stroke="#222222" stroke-width="1.8" d="M495.37,-148.48C495.37,-151.11 483.27,-153.25 468.37,-153.25 453.48,-153.25 441.37,-151.11 441.37,-148.48 441.37,-148.48 441.37,-105.52 441.37,-105.52 441.37,-102.89 453.48,-100.75 468.37,-100.75 483.27,-100.75 495.37,-102.89 495.37,-105.52 495.37,-105.52 495.37,-148.48 495.37,-148.48"/>
<path fill="none" stroke="#222222" stroke-width="1.8" d="M495.37,-148.48C495.37,-145.84 483.27,-143.7 468.37,-143.7 453.48,-143.7 441.37,-145.84 441.37,-148.48"/>
<text text-anchor="middle" x="468.37" y="-130.4" font-family="Helvetica,sans-Serif" font-size="12.00">BM25</text>
<text text-anchor="middle" x="468.37" y="-117.4" font-family="Helvetica,sans-Serif" font-size="12.00">Index</text>
</g>
<!-- chunk&#45;&gt;bm25 -->
<g id="edge3" class="edge">
<title>chunk&#45;&gt;bm25</title>
<path fill="none" stroke="#222222" stroke-width="1.4" d="M375.73,-165.04C412.93,-165.04 459.37,-165.04 459.37,-165.04 459.37,-165.04 459.37,-160.42 459.37,-160.42"/>
<polygon fill="#222222" stroke="#222222" stroke-width="1.4" points="461.83,-160.42 459.37,-153.42 456.93,-160.42 461.83,-160.42"/>
</g>
<!-- vec -->
<g id="node5" class="node">
<title>vec</title>
<path fill="none" stroke="#222222" stroke-width="1.8" d="M497.37,-236.48C497.37,-239.11 484.38,-241.25 468.37,-241.25 452.37,-241.25 439.37,-239.11 439.37,-236.48 439.37,-236.48 439.37,-193.52 439.37,-193.52 439.37,-190.89 452.37,-188.75 468.37,-188.75 484.38,-188.75 497.37,-190.89 497.37,-193.52 497.37,-193.52 497.37,-236.48 497.37,-236.48"/>
<path fill="none" stroke="#222222" stroke-width="1.8" d="M497.37,-236.48C497.37,-233.84 484.38,-231.7 468.37,-231.7 452.37,-231.7 439.37,-233.84 439.37,-236.48"/>
<text text-anchor="middle" x="468.37" y="-218.4" font-family="Helvetica,sans-Serif" font-size="12.00">Vector</text>
<text text-anchor="middle" x="468.37" y="-205.4" font-family="Helvetica,sans-Serif" font-size="12.00">DB</text>
</g>
<!-- chunk&#45;&gt;vec -->
<g id="edge4" class="edge">
<title>chunk&#45;&gt;vec</title>
<path fill="none" stroke="#222222" stroke-width="1.4" d="M375.95,-176.96C419.16,-176.96 477.37,-176.96 477.37,-176.96 477.37,-176.96 477.37,-181.58 477.37,-181.58"/>
<polygon fill="#222222" stroke="#222222" stroke-width="1.4" points="474.93,-181.58 477.37,-188.58 479.83,-181.58 474.93,-181.58"/>
</g>
<!-- query -->
<g id="node6" class="node">
<title>query</title>
<path fill="none" stroke="#222222" stroke-width="1.6" d="M72,-53C72,-53 41,-53 41,-53 35,-53 29,-47 29,-41 29,-41 29,-29 29,-29 29,-23 35,-17 41,-17 41,-17 72,-17 72,-17 78,-17 84,-23 84,-29 84,-29 84,-41 84,-41 84,-47 78,-53 72,-53"/>
<text text-anchor="middle" x="56.5" y="-31.9" font-family="Helvetica,sans-Serif" font-size="12.00">Query</text>
</g>
<!-- hy -->
<g id="node7" class="node">
<title>hy</title>
<path fill="none" stroke="#222222" stroke-width="1.6" d="M214,-54C214,-54 167,-54 167,-54 161,-54 155,-48 155,-42 155,-42 155,-28 155,-28 155,-22 161,-16 167,-16 167,-16 214,-16 214,-16 220,-16 226,-22 226,-28 226,-28 226,-42 226,-42 226,-48 220,-54 214,-54"/>
<text text-anchor="middle" x="190.5" y="-38.4" font-family="Helvetica,sans-Serif" font-size="12.00">Hybrid</text>
<text text-anchor="middle" x="190.5" y="-25.4" font-family="Helvetica,sans-Serif" font-size="12.00">Retrieval</text>
</g>
<!-- query&#45;&gt;hy -->
<g id="edge5" class="edge">
<title>query&#45;&gt;hy</title>
<path fill="none" stroke="#222222" stroke-width="1.4" d="M84.26,-35C84.26,-35 147.62,-35 147.62,-35"/>
<polygon fill="#222222" stroke="#222222" stroke-width="1.4" points="147.62,-37.45 154.62,-35 147.62,-32.55 147.62,-37.45"/>
</g>
<!-- hy&#45;&gt;bm25 -->
<g id="edge10" class="edge">
<title>hy&#45;&gt;bm25</title>
<path fill="none" stroke="#222222" stroke-width="1.4" d="M191.37,-54.39C191.37,-81.23 191.37,-126.44 191.37,-126.44 191.37,-126.44 434.31,-126.44 434.31,-126.44"/>
<polygon fill="#222222" stroke="#222222" stroke-width="1.4" points="434.31,-128.89 441.31,-126.44 434.31,-123.99 434.31,-128.89"/>
<text text-anchor="middle" x="260.32" y="-118.44" font-family="Helvetica,sans-Serif" font-size="10.00">lexical</text>
</g>
<!-- hy&#45;&gt;vec -->
<g id="edge11" class="edge">
<title>hy&#45;&gt;vec</title>
<path fill="none" stroke="#222222" stroke-width="1.4" d="M226.35,-41C241.36,-41 255.37,-41 255.37,-41 255.37,-41 255.37,-215.56 255.37,-215.56 255.37,-215.56 432.2,-215.56 432.2,-215.56"/>
<polygon fill="#222222" stroke="#222222" stroke-width="1.4" points="432.2,-218.01 439.2,-215.56 432.2,-213.11 432.2,-218.01"/>
<text text-anchor="middle" x="240.37" y="-194.19" font-family="Helvetica,sans-Serif" font-size="10.00">dense</text>
</g>
<!-- gate -->
<g id="node8" class="node">
<title>gate</title>
<polygon fill="none" stroke="#222222" stroke-width="1.8" points="330.19,-53 283.81,-35 330.19,-17 376.56,-35 330.19,-53"/>
<text text-anchor="middle" x="330.19" y="-31.9" font-family="Helvetica,sans-Serif" font-size="12.00">Gate</text>
</g>
<!-- hy&#45;&gt;gate -->
<g id="edge6" class="edge">
<title>hy&#45;&gt;gate</title>
<path fill="none" stroke="#222222" stroke-width="1.4" d="M226.11,-29C226.11,-29 291.92,-29 291.92,-29"/>
<polygon fill="#222222" stroke="#222222" stroke-width="1.4" points="291.92,-31.45 298.92,-29 291.92,-26.55 291.92,-31.45"/>
</g>
<!-- ctx -->
<g id="node9" class="node">
<title>ctx</title>
<path fill="none" stroke="#222222" stroke-width="1.6" d="M490.37,-54C490.37,-54 446.37,-54 446.37,-54 440.37,-54 434.37,-48 434.37,-42 434.37,-42 434.37,-28 434.37,-28 434.37,-22 440.37,-16 446.37,-16 446.37,-16 490.37,-16 490.37,-16 496.37,-16 502.37,-22 502.37,-28 502.37,-28 502.37,-42 502.37,-42 502.37,-48 496.37,-54 490.37,-54"/>
<text text-anchor="middle" x="468.37" y="-38.4" font-family="Helvetica,sans-Serif" font-size="12.00">Focused</text>
<text text-anchor="middle" x="468.37" y="-25.4" font-family="Helvetica,sans-Serif" font-size="12.00">Context</text>
</g>
<!-- gate&#45;&gt;ctx -->
<g id="edge7" class="edge">
<title>gate&#45;&gt;ctx</title>
<path fill="none" stroke="#222222" stroke-width="1.4" d="M376.59,-35C376.59,-35 427.12,-35 427.12,-35"/>
<polygon fill="#222222" stroke="#222222" stroke-width="1.4" points="427.12,-37.45 434.12,-35 427.12,-32.55 427.12,-37.45"/>
<text text-anchor="middle" x="390.35" y="-27" font-family="Helvetica,sans-Serif" font-size="10.00">pass</text>
</g>
<!-- llm -->
<g id="node10" class="node">
<title>llm</title>
<path fill="#f6f6f6" stroke="#222222" stroke-width="2" d="M680.37,-54C680.37,-54 572.37,-54 572.37,-54 566.37,-54 560.37,-48 560.37,-42 560.37,-42 560.37,-28 560.37,-28 560.37,-22 566.37,-16 572.37,-16 572.37,-16 680.37,-16 680.37,-16 686.37,-16 692.37,-22 692.37,-28 692.37,-28 692.37,-42 692.37,-42 692.37,-48 686.37,-54 680.37,-54"/>
<text text-anchor="middle" x="626.37" y="-38.4" font-family="Helvetica,sans-Serif" font-size="12.00">Local LLM</text>
<text text-anchor="middle" x="626.37" y="-25.4" font-family="Helvetica,sans-Serif" font-size="12.00">Answer + Citations</text>
</g>
<!-- ctx&#45;&gt;llm -->
<g id="edge8" class="edge">
<title>ctx&#45;&gt;llm</title>
<path fill="none" stroke="#222222" stroke-width="1.4" d="M502.66,-35C502.66,-35 553.31,-35 553.31,-35"/>
<polygon fill="#222222" stroke="#222222" stroke-width="1.4" points="553.31,-37.45 560.31,-35 553.31,-32.55 553.31,-37.45"/>
</g>
<!-- ui -->
<g id="node11" class="node">
<title>ui</title>
<path fill="#f6f6f6" stroke="#222222" stroke-width="2" d="M827.37,-53C827.37,-53 762.37,-53 762.37,-53 756.37,-53 750.37,-47 750.37,-41 750.37,-41 750.37,-29 750.37,-29 750.37,-23 756.37,-17 762.37,-17 762.37,-17 827.37,-17 827.37,-17 833.37,-17 839.37,-23 839.37,-29 839.37,-29 839.37,-41 839.37,-41 839.37,-47 833.37,-53 827.37,-53"/>
<text text-anchor="middle" x="794.87" y="-31.9" font-family="Helvetica,sans-Serif" font-size="12.00">Streamlit UI</text>
</g>
<!-- llm&#45;&gt;ui -->
<g id="edge9" class="edge">
<title>llm&#45;&gt;ui</title>
<path fill="none" stroke="#222222" stroke-width="1.4" d="M692.49,-35C692.49,-35 743.24,-35 743.24,-35"/>
<polygon fill="#222222" stroke="#222222" stroke-width="1.4" points="743.24,-37.45 750.24,-35 743.24,-32.55 743.24,-37.45"/>
</g>
</g>
</svg>
